<svg xmlns="http://www.w3.org/2000/svg" width="672" height="639.295" viewBox="0 0 672 639.295">
  <g id="_404_Error_Page_not_Found_with_people_connecting_a_plug-amico" data-name="404 Error Page not Found with people connecting a plug-amico" transform="translate(-18.343 -50.418)">
    <g id="freepik--Floor--inject-49" transform="translate(21.632 341.511)">
      <ellipse id="freepik--floor--inject-49-2" data-name="freepik--floor--inject-49" cx="334.356" cy="174.101" rx="334.356" ry="174.101" transform="translate(0 0)" fill="#f5f5f5"/>
    </g>
    <g id="freepik--Shadows--inject-49" transform="translate(61.873 435.375)">
      <ellipse id="freepik--Shadow--inject-49" cx="89.18" cy="51.491" rx="89.18" ry="51.491" transform="translate(419.139)" fill="#e6e6e6"/>
      <g id="freepik--shadow--inject-49-2" data-name="freepik--shadow--inject-49" transform="translate(0 6.155)">
        <path id="freepik--shadow--inject-49-3" data-name="freepik--shadow--inject-49" d="M197.253,332.411c34.118,19.7,35.508,52.223,1.376,71.924s-90.819,19.115-124.952-.585-34.118-51.637,0-71.338S163.106,312.71,197.253,332.411Z" transform="translate(-48.084 -317.635)" fill="#e6e6e6"/>
        <path id="freepik--shadow--inject-49-4" data-name="freepik--shadow--inject-49" d="M452.788,421.224l-112-64.664a14.007,14.007,0,0,0-12.675,0l-112,64.664c-3.5,2.02-3.5,5.3,0,7.318l51.008,29.449-47.642,27.5c-9.675,5.576-25.424,5.576-35.128,0l-74.939-43.265c-4.127-2.386-6.411-5.386-6.411-8.431s2.283-6.06,6.411-8.445L175.822,387a2.927,2.927,0,1,0-2.927-5.064l-66.377,38.318c-6.016,3.483-9.338,8.284-9.338,13.524s3.322,10.026,9.338,13.51l74.939,43.265a44.729,44.729,0,0,0,40.982,0l50.569-29.185,55.165,31.834a14.007,14.007,0,0,0,12.675,0l112-64.664C456.286,426.522,456.286,423.244,452.788,421.224Z" transform="translate(-25.32 -300.29)" fill="#e6e6e6"/>
      </g>
    </g>
    <g id="freepik--character-2--inject-49" transform="translate(308.615 50.418)">
      <g id="freepik--Character--inject-49">
        <g id="freepik--Bottom--inject-49" transform="translate(201.231 172.918)">
          <path id="Path_31454" data-name="Path 31454" d="M460.731,406.849s4.069-60.273,2.927-82.491c-.951-17.564-3.337-24.882-3.835-28.848,0,0-4.318-40.982-4.669-75.949-.176-16.8-1.727-28.746-10.933-48.71L385.046,185c-1.2,8.87-5.269,67.855-6.235,120.3-.834,45.915.468,86.106.468,86.106v2.415c0,2.693-.585,4.567-2.313,8.87a51.693,51.693,0,0,1-9.162,15.163c-1.215,1.317-9.66,8.694-10.772,10.246-3.63,4.23,3.893,6.616,9.47,5.855,5.855-.79,15.017-3.03,17.564-6.6,1.727-2.4,3.03-10.758,4.8-13.173,5.986-8.167,8.445-11.709,8.489-14.285.088-4.713-1.537-6.572-2.122-9.236.483-5.562,12.5-51.3,12.7-67.5.1-7.713-.424-18.34-.424-18.34l9.309-53.452c3.6,13.348,9.924,46.485,12.06,59.2,2.591,15.544,9.367,55.443,13.378,79.242,1.537,9.177,2.254,13.817,2.927,18.076l.161,1.815c.132,2.313,1.815,27.048,2.722,32.2,1.9,10.816,11.519,9.455,13.056.7,1.317-7.435-.322-30.5-.366-33.327Z" transform="translate(-353.255 -167.498)" fill="#ffa8a7"/>
          <path id="Path_31455" data-name="Path 31455" d="M432.982,332.09c2.722,0,.937,10.553,1.639,17.3.746,7.245,3.118,12.543,3.806,18.471a24.121,24.121,0,0,1-2.269,15.207c-1.888,4.391-11.4,10.246-15.017,4.084s-4.391-13.29-3.966-20.052,0-11.3.132-16.612c.132-4.684-3.308-16.642.22-17.315l.161,1.815c1.273,2.532,14.124,3.03,15.412-.4Z" transform="translate(-325.505 -92.74)" fill="#37474f"/>
          <path id="Path_31456" data-name="Path 31456" d="M387.561,331.27c.834,3.381,0,12.661,0,12.661s-1.464,3.205-6.689,5.328l-2.342-12.909Z" transform="translate(-342.846 -93.12)" fill="#263238"/>
          <path id="Path_31457" data-name="Path 31457" d="M384.635,347.992l-11.5-3.776L370.35,334l12.939,6.543Z" transform="translate(-346.638 -91.854)"/>
          <path id="Path_31458" data-name="Path 31458" d="M380.174,324.179v-2.415c-1.566.761-5.006,13.363-9.66,21.955-4.245,7.889-12.661,12.28-15.4,15.72-3.659,4.581,3.454,10.509,14.856,8.065,5.664-1.215,14.241-4.83,16.569-8.65s3.1-10.846,5.006-13.656,6.425-6.045,7.318-9.236a17.564,17.564,0,0,0,0-8.782c-.893-2.927-1.683-6.425-2.678-6.1v2.21c-.761,1.552-3.527,3.366-9.28,3.688C384.1,327.107,381.433,326.682,380.174,324.179Z" transform="translate(-354.15 -97.855)" fill="#37474f"/>
          <path id="Path_31459" data-name="Path 31459" d="M376.875,185.3s-3.908,43.426-5.167,81.876-.132,88.068-.132,88.068,3.966,2.84,12.7,3.235,11.709-2.517,11.709-2.517,5.342-17.432,6.177-29.7a125.459,125.459,0,0,0,0-19.95l7.8-51.316s9.894,50.525,11.021,56.629,10.6,60.1,10.6,60.1,3.718,3.425,13.261,3.249c8.445-.161,10.889-3.191,10.889-3.191s2.034-33.108,1.566-47.247c-.4-12.47-3.249-22.394-3.82-30.488s-.893-54.155-1.464-71.719-2.034-32.639-17.066-53.774Z" transform="translate(-346.284 -168.56)" fill="#455a64"/>
          <path id="Path_31460" data-name="Path 31460" d="M405.016,240.975l-6.5-32.2s-11.314-2.927-16.6-9.865c0,0,1.464,7.67,13.173,12.573L402,243.507l-2.4,33.108Z" transform="translate(-341.274 -154.488)" fill="#37474f"/>
        </g>
        <g id="freepik--Top--inject-49" transform="translate(0 27.897)">
          <path id="Path_31461" data-name="Path 31461" d="M321.309,198.081a27.956,27.956,0,0,0,12.456-.922,24.5,24.5,0,0,1-4.933-3.264,3.41,3.41,0,0,1-.585-4.713c.542-.585,1.888.776,4.932,1.639,3.893,1.1,6.718,1.332,10.465,3.5a6.865,6.865,0,0,0,4.684.82c9.133-1.712,30.429-11.709,40.192-16.92,1.991-8.123,5.445-20.067,9.7-34.967,3.937-13.729,10.246-19.73,20.315-19.51l-1.449,29.815s-4.8,20.594-10.743,37.411c-1.039,2.927-5.211,6.338-12.851,9.177-9.894,3.674-21.838,7.143-36.43,11.138A113.125,113.125,0,0,1,339,214.869c-15.427,1.317-21.34-2.927-23.418-5.972C309.673,200.5,313.171,196.456,321.309,198.081Z" transform="translate(-172.169 -44.321)" fill="#ffa8a7"/>
          <path id="Path_31462" data-name="Path 31462" d="M417.162,123.673l14.08,1.083a32.727,32.727,0,0,0,10.6,31.527l-6.279,25.292c.2,3.132,5.386,13.67,10.407,25-9.441,12.646-55.75,16.964-70.855,5.855,2.327-11.914,4.069-20.959,4.537-25.482l-.761-16.349c-18.94-15.529,3.908-39.2,12.324-46.72l10.568-.468Z" transform="translate(-144.841 -44.472)" fill="#0058ff"/>
          <path id="Path_31463" data-name="Path 31463" d="M444.192,215.823a7.889,7.889,0,0,1-3.015-6.791c.249-2.356.79-5.313,1.771-6.455s7.128-9.5,9.85-4.64c2.927,5.3,2.327,7.45,2.327,7.45Z" transform="translate(-112.579 -10.616)" fill="#f28f8f"/>
          <path id="Path_31464" data-name="Path 31464" d="M480.916,337.371a37.822,37.822,0,0,1-18.662-5.65l-73.08-42.212c-11.285-6.513-20.491-22.423-20.491-35.464V192.733a11.709,11.709,0,0,0-17.564-10.1l-25.585,14.812a2.927,2.927,0,1,1-2.927-5.064l25.658-14.827a17.564,17.564,0,0,1,26.346,15.178v61.312c0,10.977,8.05,24.882,17.564,30.4l73.08,42.182c9.353,5.4,18.032,6.338,24.414,2.664s9.909-11.709,9.909-22.467V228.549c0-13.261,8.474-28.541,19.291-34.791l17.842-10.246a2.927,2.927,0,1,1,2.927,5.064L521.8,198.822c-8.87,5.123-16.364,18.72-16.364,29.712V306.81c0,12.968-4.567,22.745-12.836,27.531A22.949,22.949,0,0,1,480.916,337.371Z" transform="translate(-168.271 -20.458)" fill="#37474f"/>
          <g id="freepik--Plug--inject-49" transform="translate(37.698 145.017)">
            <path id="Path_31465" data-name="Path 31465" d="M376.122,204.758v4.786c0,7.655-5.372,16.978-12.017,20.8l-44.319,25.6L274.72,229.918V190.9l43.7-20.228c6.952-3.205,17.959-2.708,24.6,1.112l21.047,12.163C370.706,187.779,376.122,197.1,376.122,204.758Z" transform="translate(-227.444 -168.556)" fill="#37474f"/>
            <path id="Path_31466" data-name="Path 31466" d="M318.443,170.669c6.952-3.205,17.959-2.708,24.6,1.112l21.047,12.163c6.63,3.82,6.367,9.528-.585,12.748l-43.749,20.2-45.08-26.009Z" transform="translate(-227.463 -168.556)" fill="#455a64"/>
            <path id="Path_31467" data-name="Path 31467" d="M324.01,202.116a13.275,13.275,0,0,1,6,10.392v32.1l-10.246,5.855L274.7,224.437V185.489l11.416-5.269Z" transform="translate(-227.453 -163.149)" opacity="0.15"/>
            <path id="Path_31468" data-name="Path 31468" d="M274.433,179.353a4.171,4.171,0,0,1,4.215.41l44.319,25.6a13.261,13.261,0,0,1,6,10.406v38.172a4.171,4.171,0,0,1-1.756,3.864c-1.025.571-4.64,2.664-5.65,3.264a4.2,4.2,0,0,1-4.23-.41L273,235.06a13.275,13.275,0,0,1-6-10.392V186.5a4.23,4.23,0,0,1,1.742-3.879Z" transform="translate(-231.035 -163.731)" fill="#37474f"/>
            <path id="Path_31469" data-name="Path 31469" d="M317.325,207.585,272.991,182c-3.308-1.917-6-.366-6,3.469v38.172a13.275,13.275,0,0,0,6,10.392l44.334,25.6c3.308,1.917,6,.366,6-3.469V217.991a13.3,13.3,0,0,0-6-10.407Z" transform="translate(-231.028 -162.704)" fill="#455a64"/>
            <path id="Path_31470" data-name="Path 31470" d="M265.51,240.9v6.6c0,2.678.922,4.537,2.444,5.415l3.981,2.3a5.855,5.855,0,0,0,6-.527l36.591-21.164V207.468l-3.981-2.3-36.664,21.164A18.574,18.574,0,0,0,265.51,240.9Zm16.583-8.167a5.856,5.856,0,0,1,.234,1.464,12.441,12.441,0,0,1-5.635,9.763,5.3,5.3,0,0,1-1.464.585,6.016,6.016,0,0,1-.2-1.464,12.456,12.456,0,0,1,5.635-9.763,6.934,6.934,0,0,1,1.434-.585Z" transform="translate(-231.714 -151.581)" fill="#0058ff"/>
            <path id="Path_31471" data-name="Path 31471" d="M271.721,246.372a1.465,1.465,0,0,0,.249.176h0l-.146-.088-3.849-2.239c-1.537-.849-2.444-2.708-2.444-5.4v-6.6a17.036,17.036,0,0,1,2.473-8.3l3.981,2.3a17.272,17.272,0,0,0-2.459,8.3v6.6a6.718,6.718,0,0,0,1.537,4.713A3.588,3.588,0,0,0,271.721,246.372Z" transform="translate(-231.705 -142.887)" opacity="0.2"/>
            <path id="Path_31472" data-name="Path 31472" d="M313.735,207.468l-36.591,21.164A17.154,17.154,0,0,0,271.2,234.9l-3.981-2.3a17.241,17.241,0,0,1,5.928-6.264l36.664-21.164Z" transform="translate(-230.921 -151.581)" fill="#fff" opacity="0.5"/>
            <path id="Path_31473" data-name="Path 31473" d="M270.032,239.45h0Z" transform="translate(-229.665 -135.687)" fill="#fff" opacity="0.5"/>
            <path id="Path_31474" data-name="Path 31474" d="M270,239.43Z" transform="translate(-229.633 -135.696)" opacity="0.2"/>
            <path id="Path_31475" data-name="Path 31475" d="M279.244,225.544a6.255,6.255,0,0,0-.2-1.566h0c2.415-.659,4.186.849,4.186,3.864a12.47,12.47,0,0,1-5.62,9.762c-2.605,1.464-4.83.717-5.445-1.712a4.787,4.787,0,0,0,1.464-.585,12.485,12.485,0,0,0,5.621-9.762Z" transform="translate(-228.631 -142.931)" opacity="0.2"/>
            <path id="Path_31476" data-name="Path 31476" d="M242.42,227.558v6.616c0,2.664.922,4.537,2.444,5.4l3.981,2.313a5.855,5.855,0,0,0,5.972-.556l36.591-21.179V194.143l-3.981-2.313-36.591,21.164A18.618,18.618,0,0,0,242.42,227.558ZM259,219.347a6.337,6.337,0,0,1,.2,1.566,12.456,12.456,0,0,1-5.635,9.763,6.732,6.732,0,0,1-1.464.586,5.575,5.575,0,0,1-.2-1.537,12.47,12.47,0,0,1,5.62-9.763,5.724,5.724,0,0,1,1.478-.615Z" transform="translate(-242.42 -157.766)" fill="#0058ff"/>
            <path id="Path_31477" data-name="Path 31477" d="M249.021,233.268h-.176l-3.981-2.327c-1.537-.864-2.444-2.722-2.444-5.415v-6.6a14.46,14.46,0,0,1,.659-4.157,19.728,19.728,0,0,1,1.8-4.128h0l3.981,2.283h0a18.569,18.569,0,0,0-1.01,2.02,15.939,15.939,0,0,0-1.464,6.264v6.6a6.747,6.747,0,0,0,1.464,4.713,4.1,4.1,0,0,0,1.171.747Z" transform="translate(-242.42 -149.044)" opacity="0.2"/>
            <path id="Path_31478" data-name="Path 31478" d="M290.655,194.143l-36.591,21.164a17.037,17.037,0,0,0-5.942,6.264l-3.981-2.283a17.228,17.228,0,0,1,5.855-6.294l36.591-21.164Z" transform="translate(-241.622 -157.766)" fill="#fff" opacity="0.5"/>
            <path id="Path_31479" data-name="Path 31479" d="M247.032,226.12H247Z" transform="translate(-240.329 -141.867)" fill="#fff" opacity="0.5"/>
            <path id="Path_31480" data-name="Path 31480" d="M256.119,212.231a6.165,6.165,0,0,0-.19-1.551h0c2.4-.673,4.186.849,4.186,3.864a12.47,12.47,0,0,1-5.62,9.763c-2.62,1.464-4.83.717-5.445-1.727a4.567,4.567,0,0,0,1.464-.585A12.441,12.441,0,0,0,256.119,212.231Z" transform="translate(-239.346 -149.099)" opacity="0.2"/>
          </g>
          <path id="Path_31481" data-name="Path 31481" d="M252.549,208.215a2.181,2.181,0,0,1-2.122-1.654l-5.855-22.95a2.2,2.2,0,1,1,4.259-1.1l5.855,22.965a2.166,2.166,0,0,1-1.581,2.664,2.3,2.3,0,0,1-.556.073Z" transform="translate(-203.757 -17.834)" fill="#e0e0e0"/>
          <path id="Path_31482" data-name="Path 31482" d="M246.363,212.955a2.2,2.2,0,0,1-1.361-.468l-21.794-17.227a2.2,2.2,0,1,1,2.722-3.44l21.794,17.212a2.21,2.21,0,0,1,.366,3.088,2.166,2.166,0,0,1-1.727.834Z" transform="translate(-214.052 -13.002)" fill="#e0e0e0"/>
          <path id="Path_31483" data-name="Path 31483" d="M218.941,222.469a2.2,2.2,0,1,1-.161-4.391l25.482-1.976a2.181,2.181,0,0,1,2.356,2.02,2.21,2.21,0,0,1-2.02,2.357l-25.482,1.976Z" transform="translate(-216.664 -1.499)" fill="#e0e0e0"/>
          <path id="Path_31484" data-name="Path 31484" d="M478,225.356a144.255,144.255,0,0,0-2.4-16.1,216.784,216.784,0,0,0-13.261-36.313c-2.444-4.669-7.962-11.475-11.87-17.227-5.533-8.123-9.426-12.675-13.627-18.193-9.25-12.1-13.173-12.807-23.975-13.173-1.464,3.849-4.8,19.628,6.016,32.376l23.184,24.443c1.317,2.122,15.485,26.346,17.842,35.289a6.616,6.616,0,0,1-.556,4.728,57.081,57.081,0,0,0-4.054,12.822c-.688,3.1-2.532,5.562-1.9,6.045a4.157,4.157,0,0,0,5.138-.41,22.028,22.028,0,0,0,4-6.03,3.147,3.147,0,0,1,3.352,3.205c.132,1.8-.688,4.3-1.317,7.421-.117.615-.263,1.317-.542,3.015a19.648,19.648,0,0,0-.41,3.483c2.927.542,5.986-1.244,10.9-5.855C478.948,240.578,479.241,234.929,478,225.356Z" transform="translate(-126.463 -44.036)" fill="#ffa8a7"/>
          <path id="Path_31485" data-name="Path 31485" d="M419.362,141.566c.088-2.927,9.6-9.777,14.417-17.066,4.391-6.762,10.7-25.35-4.084-31.293,0,0,3.191-8.914-2.605-14.168s-13.6-2.005-14.827.19a13.173,13.173,0,0,0-12.383-9.719,11.519,11.519,0,0,0-12.119,9.031,11.109,11.109,0,0,0-13.48,3.776c-5.43,7.479,1.771,14.329,1.771,14.329a6.22,6.22,0,0,0-2.708,5.8c.424,3.161,3.454,3.937,3.805,5.518a1.551,1.551,0,0,1-2.649,1.376,3.191,3.191,0,0,0,3.747,2.532c3.41-.19,6.455-4.83,6.455-4.83Z" transform="translate(-144.524 -69.478)" fill="#263238"/>
          <path id="Path_31486" data-name="Path 31486" d="M385.925,85.05c-4.391,1.9-8.533,8.592-8.474,27.3,0,15.851,4.918,19.862,7.318,21.047s7.245.571,11.914-.146v9.119s-8.445,10.48-.878,15.69c19.5-3.41,20.989-16.2,20.989-16.2l.351-19.876s2.678,2.81,7.318-1.317c3.893-3.41,5.3-9.25,2.371-12.47s-6.674-3.469-10.07.117c0,0-6.221.41-15.573-5.459S388.5,91.022,385.925,85.05Z" transform="translate(-142.116 -62.257)" fill="#ffa8a7"/>
          <path id="Path_31487" data-name="Path 31487" d="M392.4,111.2a2.283,2.283,0,0,1-2.166,2.43,2.356,2.356,0,1,1,2.166-2.43Z" transform="translate(-137.368 -51.188)" fill="#b16668"/>
          <path id="Path_31488" data-name="Path 31488" d="M384.015,100.672a2.108,2.108,0,1,1-2.2-2.122,2.152,2.152,0,0,1,2.2,2.122Z" transform="translate(-141.026 -55.998)" fill="#263238"/>
          <path id="Path_31489" data-name="Path 31489" d="M395.178,101.351a2.283,2.283,0,0,1-2.166,2.43,2.327,2.327,0,0,1-2.342-2.283,2.255,2.255,0,1,1,4.508-.146Z" transform="translate(-135.987 -55.711)" fill="#263238"/>
          <path id="Path_31490" data-name="Path 31490" d="M383.094,94.27l-4.464,2.62a2.488,2.488,0,0,0,3.513.951,2.678,2.678,0,0,0,.951-3.571Z" transform="translate(-141.569 -57.983)" fill="#263238"/>
          <path id="Path_31491" data-name="Path 31491" d="M405.711,99.18v8.782a4.128,4.128,0,0,1-4.23-4.274,4.537,4.537,0,0,1,4.23-4.508Z" transform="translate(-130.975 -55.706)" fill="#263238"/>
          <path id="Path_31492" data-name="Path 31492" d="M389.017,98.57l-.893,12.646-6.674-1.566Z" transform="translate(-140.261 -55.989)" fill="#f28f8f"/>
          <path id="Path_31493" data-name="Path 31493" d="M390.635,120.379c4.9-.571,15.032-3.381,16.686-7.509a10.757,10.757,0,0,1-3.63,5.225c-3.059,2.635-13.07,5.357-13.07,5.357Z" transform="translate(-136.01 -49.359)" fill="#f28f8f"/>
        </g>
        <g id="freepik--question-marks--inject-49" transform="translate(293.431)">
          <path id="Path_31494" data-name="Path 31494" d="M437.279,51.533a20.168,20.168,0,0,1,5.2,2.927,15.733,15.733,0,0,1,3.879,4.084,12.706,12.706,0,0,1,1.9,5.035,11.2,11.2,0,0,1-.688,5.664,11.562,11.562,0,0,1-2.327,3.893,13.905,13.905,0,0,1-3.118,2.459,21.676,21.676,0,0,1-3.513,1.61l-3.454,1.244a17.473,17.473,0,0,0-2.927,1.376,5.226,5.226,0,0,0-2.122,1.961,2.576,2.576,0,0,1-.966.937,1.464,1.464,0,0,1-1.259.073l-4.567-1.712a1.727,1.727,0,0,1-.981-.922,1.463,1.463,0,0,1,0-1.3,11.285,11.285,0,0,1,2.547-3.747,15.969,15.969,0,0,1,3.293-2.386,22.825,22.825,0,0,1,3.6-1.551c1.229-.41,2.371-.805,3.44-1.215a15.223,15.223,0,0,0,2.766-1.347,4.083,4.083,0,0,0,1.639-2.02,4.815,4.815,0,0,0-.5-4.479,8.782,8.782,0,0,0-4.552-3.381A8.387,8.387,0,0,0,425.159,61a3.791,3.791,0,0,1-1.01.761,1.683,1.683,0,0,1-1.229-.088l-4.859-1.83a1.361,1.361,0,0,1-.79-.717,1.244,1.244,0,0,1,0-1.1,9.764,9.764,0,0,1,2.927-3.805,15.676,15.676,0,0,1,4.786-2.722,19.028,19.028,0,0,1,5.957-1.083A16.8,16.8,0,0,1,437.279,51.533ZM426.857,86.515a1.61,1.61,0,0,1,.951.907,1.654,1.654,0,0,1,0,1.317l-1.991,5.284a1.61,1.61,0,0,1-.907.951,1.654,1.654,0,0,1-1.317,0l-5.167-1.947a1.61,1.61,0,0,1-.951-.907,1.654,1.654,0,0,1,0-1.317l1.991-5.284a1.683,1.683,0,0,1,.907-.966,1.713,1.713,0,0,1,1.317,0Z" transform="translate(-417.143 -50.418)" fill="#0058ff"/>
          <path id="Path_31495" data-name="Path 31495" d="M435.862,104.136a1.61,1.61,0,0,1,0,2.3L432.2,110.3a1.581,1.581,0,0,1-1.142.5,1.625,1.625,0,0,1-1.171-.439l-3.732-3.586a1.662,1.662,0,0,1-.059-2.313l3.674-3.849a1.639,1.639,0,0,1,2.3,0ZM457.817,77.6a19.526,19.526,0,0,1,3.469,4.391,15.28,15.28,0,0,1,1.859,4.976,12.077,12.077,0,0,1-.249,5.05,11.71,11.71,0,0,1-6.133,7.187,12.836,12.836,0,0,1-3.6,1,21.749,21.749,0,0,1-3.645.1l-3.454-.19a17.755,17.755,0,0,0-3.088.1,4.976,4.976,0,0,0-2.518,1.025,2.284,2.284,0,0,1-1.186.454,1.376,1.376,0,0,1-1.127-.4l-3.322-3.161a1.683,1.683,0,0,1-.527-1.156,1.347,1.347,0,0,1,.468-1.156,10.64,10.64,0,0,1,3.571-2.342,14.97,14.97,0,0,1,3.732-.864,22.378,22.378,0,0,1,3.7,0q1.83.161,3.425.22a13.95,13.95,0,0,0,2.927-.161,3.82,3.82,0,0,0,2.181-1.142,4.581,4.581,0,0,0,1.2-4.069,8.226,8.226,0,0,0-2.708-4.61,7.933,7.933,0,0,0-9.016-1.464,3.367,3.367,0,0,1-1.142.278,1.464,1.464,0,0,1-1.039-.527l-3.542-3.381a1.346,1.346,0,0,1-.439-.893,1.288,1.288,0,0,1,.38-.981,9.44,9.44,0,0,1,3.923-2.239,14.929,14.929,0,0,1,5.152-.6,17.813,17.813,0,0,1,5.576,1.259,15.515,15.515,0,0,1,5.108,3.293Z" transform="translate(-413.194 -39.937)" fill="#0058ff"/>
          <g id="Group_5958" data-name="Group 5958" transform="translate(12.464 33.085)" opacity="0.6">
            <path id="Path_31496" data-name="Path 31496" d="M435.862,104.136a1.61,1.61,0,0,1,0,2.3L432.2,110.3a1.581,1.581,0,0,1-1.142.5,1.625,1.625,0,0,1-1.171-.439l-3.732-3.586a1.662,1.662,0,0,1-.059-2.313l3.674-3.849a1.639,1.639,0,0,1,2.3,0ZM457.817,77.6a19.526,19.526,0,0,1,3.469,4.391,15.28,15.28,0,0,1,1.859,4.976,12.077,12.077,0,0,1-.249,5.05,11.71,11.71,0,0,1-6.133,7.187,12.836,12.836,0,0,1-3.6,1,21.749,21.749,0,0,1-3.645.1l-3.454-.19a17.755,17.755,0,0,0-3.088.1,4.976,4.976,0,0,0-2.518,1.025,2.284,2.284,0,0,1-1.186.454,1.376,1.376,0,0,1-1.127-.4l-3.322-3.161a1.683,1.683,0,0,1-.527-1.156,1.347,1.347,0,0,1,.468-1.156,10.64,10.64,0,0,1,3.571-2.342,14.97,14.97,0,0,1,3.732-.864,22.378,22.378,0,0,1,3.7,0q1.83.161,3.425.22a13.95,13.95,0,0,0,2.927-.161,3.82,3.82,0,0,0,2.181-1.142,4.581,4.581,0,0,0,1.2-4.069,8.226,8.226,0,0,0-2.708-4.61,7.933,7.933,0,0,0-9.016-1.464,3.367,3.367,0,0,1-1.142.278,1.464,1.464,0,0,1-1.039-.527l-3.542-3.381a1.346,1.346,0,0,1-.439-.893,1.288,1.288,0,0,1,.38-.981,9.44,9.44,0,0,1,3.923-2.239,14.929,14.929,0,0,1,5.152-.6,17.813,17.813,0,0,1,5.576,1.259,15.515,15.515,0,0,1,5.108,3.293Z" transform="translate(-425.659 -73.022)" fill="#fff"/>
          </g>
        </g>
      </g>
    </g>
    <g id="freepik--character-1--inject-49" transform="translate(18.343 57.182)">
      <g id="freepik--character--inject-49-2" data-name="freepik--character--inject-49">
        <g id="freepik--bottom--inject-49-2" data-name="freepik--bottom--inject-49" transform="translate(81.762 207.766)">
          <path id="Path_31497" data-name="Path 31497" d="M76.81,356.824c4.64,2.825,10.8,2.927,16.612.893l4.391-30.737-20.491-5.24Z" transform="translate(-72.997 -139.15)" fill="#ffa8a7"/>
          <path id="Path_31498" data-name="Path 31498" d="M111.071,374.3c.512.527.2,4.391-.424,5.254s-4.157,3.791-10.655,3.908c-6.191.1-11.709-1.025-15.163-3.527s-5.108-5.123-5.269-8.665.424-6.894-1.1-9.689-3.352-5.137-3.82-6.513a17.564,17.564,0,0,1,0-7.567Z" transform="translate(-74.194 -127.206)" fill="#263238"/>
          <path id="Path_31499" data-name="Path 31499" d="M96.05,347.774a16.919,16.919,0,0,0,.556,3.952,36.255,36.255,0,0,0,3.352,7.933,33.323,33.323,0,0,0,2.386,3.762c1.742,2.327,3.967,4.274,5.855,6.513a12.6,12.6,0,0,1,3.41,7.787c0,4.859-5.342,6.22-9.426,6.718a29.756,29.756,0,0,1-13.173-1.361,12.09,12.09,0,0,1-8.328-10.129c-.161-1.361,0-2.722-.088-4.084a18.925,18.925,0,0,0-3.308-8.679,24.88,24.88,0,0,1-2.635-4.771c-1.112-3.059.088-6.382,1.054-9.323.834-2.532,1.464-5.591,2.4-5.3v1.654c.263.571.907.981,1.068,1.654a12.573,12.573,0,0,0,.629,2.035,5.269,5.269,0,0,0,2.02,2.488c.161-1.83.322-3.659.468-5.474a1.917,1.917,0,0,1,2.093-2.181,34.527,34.527,0,0,1,10.407-.307,1.991,1.991,0,0,1,1.361.688,2.108,2.108,0,0,1,.161,1.244,48,48,0,0,0-.263,5.181Z" transform="translate(-74.205 -130.496)" fill="#0058ff"/>
          <path id="Path_31500" data-name="Path 31500" d="M96.05,347.774a16.919,16.919,0,0,0,.556,3.952,36.255,36.255,0,0,0,3.352,7.933,33.323,33.323,0,0,0,2.386,3.762c1.742,2.327,3.967,4.274,5.855,6.513a12.6,12.6,0,0,1,3.41,7.787c0,4.859-5.342,6.22-9.426,6.718a29.756,29.756,0,0,1-13.173-1.361,12.09,12.09,0,0,1-8.328-10.129c-.161-1.361,0-2.722-.088-4.084a18.925,18.925,0,0,0-3.308-8.679,24.88,24.88,0,0,1-2.635-4.771c-1.112-3.059.088-6.382,1.054-9.323.834-2.532,1.464-5.591,2.4-5.3v1.654c.263.571.907.981,1.068,1.654a12.573,12.573,0,0,0,.629,2.035,5.269,5.269,0,0,0,2.02,2.488c.161-1.83.322-3.659.468-5.474a1.917,1.917,0,0,1,2.093-2.181,34.527,34.527,0,0,1,10.407-.307,1.991,1.991,0,0,1,1.361.688,2.108,2.108,0,0,1,.161,1.244,48,48,0,0,0-.263,5.181Z" transform="translate(-74.205 -130.496)" opacity="0.2"/>
          <path id="Path_31501" data-name="Path 31501" d="M97.464,355.626c-1.727-1.464-5.767-1.683-7.992-1.566a13.5,13.5,0,0,0-6.4,1.859,1.464,1.464,0,0,1-1.83-.249h0a1.347,1.347,0,0,1,.234-2.049,13.831,13.831,0,0,1,7.216-2.239c5.533-.088,7,.907,7,.907S98.094,354.046,97.464,355.626Z" transform="translate(-71.111 -125.409)" fill="#455a64"/>
          <path id="Path_31502" data-name="Path 31502" d="M100.342,359.129c-2.2-1.464-6.645-1.464-8.87-1.39a12.587,12.587,0,0,0-6.221,1.991,1.464,1.464,0,0,1-1.844-.249h0a1.332,1.332,0,0,1,.249-2.049A13.978,13.978,0,0,1,90.975,355c5.459-.1,6.821,1.1,6.821,1.1a4.493,4.493,0,0,1,2.547,3.03Z" transform="translate(-70.11 -123.731)" fill="#455a64"/>
          <path id="Path_31503" data-name="Path 31503" d="M87.362,347.78a13.567,13.567,0,0,1,6.806.937c.922.6,1.464,2.137.834,2.488a12.674,12.674,0,0,0-6.074-1.156,17.914,17.914,0,0,0-5.957,1.3,11.145,11.145,0,0,0-1.464.673,1.273,1.273,0,0,1-1.756-.644h0a1.229,1.229,0,0,1,.556-1.464,17.461,17.461,0,0,1,7.055-2.137Z" transform="translate(-71.664 -127.121)" fill="#455a64"/>
          <path id="Path_31504" data-name="Path 31504" d="M117.128,347.8c3.571,8.943,9.162,6.191,17.681,1.039l1.288-30.532L114.42,316.3Z" transform="translate(-55.559 -141.672)" fill="#ffa8a7"/>
          <path id="Path_31505" data-name="Path 31505" d="M168.049,356.6a5.855,5.855,0,0,1-.468,4.288c-.673,1.229-7.45,4.6-16.305,3.513A36.912,36.912,0,0,1,133.244,357c-3.264-2.43-6.762-3.03-11.153-3.527s-7.684-2.02-8.548-4.127.454-5.591.454-5.591Z" transform="translate(-56.102 -128.945)" fill="#263238"/>
          <path id="Path_31506" data-name="Path 31506" d="M133.61,334.063a17.48,17.48,0,0,0,2.356-.673,1.917,1.917,0,0,1,1.332,0c.556.249.732.922.864,1.464a20.285,20.285,0,0,0,.761,3.908,9.572,9.572,0,0,0,2.342,2.752,40.73,40.73,0,0,0,6.865,4.962c2.825,1.727,5.606,3.088,8.518,4.6s7,2.591,9.309,4.391c3.352,2.547,3.483,8.475-.615,10.582-3.527,1.83-12.661,3.527-21.955.337-5.079-1.742-10.494-7.552-17.227-8.445-4.288-.556-10-1.229-12.587-4.64-.937-1.464-.117-5.708.644-10.67.688-4.391,1.317-11.416,2.737-10.948l.1,1.347,1.727,2.064a14.742,14.742,0,0,0,1.2,1.142q.693.811,1.464,1.551a4.391,4.391,0,0,0,2.474,1.039,2.283,2.283,0,0,0,1.244-.278c.732-.41.834-1.376,1.464-1.976a7.143,7.143,0,0,1,2.4-1.625,14.064,14.064,0,0,1,3.893-.79,5.333,5.333,0,0,0,.688-.088Z" transform="translate(-56.146 -134.553)" fill="#0058ff"/>
          <path id="Path_31507" data-name="Path 31507" d="M133.61,334.063a17.48,17.48,0,0,0,2.356-.673,1.917,1.917,0,0,1,1.332,0c.556.249.732.922.864,1.464a20.285,20.285,0,0,0,.761,3.908,9.572,9.572,0,0,0,2.342,2.752,40.73,40.73,0,0,0,6.865,4.962c2.825,1.727,5.606,3.088,8.518,4.6s7,2.591,9.309,4.391c3.352,2.547,3.483,8.475-.615,10.582-3.527,1.83-12.661,3.527-21.955.337-5.079-1.742-10.494-7.552-17.227-8.445-4.288-.556-10-1.229-12.587-4.64-.937-1.464-.117-5.708.644-10.67.688-4.391,1.317-11.416,2.737-10.948l.1,1.347,1.727,2.064a14.742,14.742,0,0,0,1.2,1.142q.693.811,1.464,1.551a4.391,4.391,0,0,0,2.474,1.039,2.283,2.283,0,0,0,1.244-.278c.732-.41.834-1.376,1.464-1.976a7.143,7.143,0,0,1,2.4-1.625,14.064,14.064,0,0,1,3.893-.79,5.333,5.333,0,0,0,.688-.088Z" transform="translate(-56.146 -134.553)" opacity="0.2"/>
          <path id="Path_31508" data-name="Path 31508" d="M138.023,340.759a4.04,4.04,0,0,0-3.074-2.3c-1.932-.468-5.459.79-7.7,2.444a1.61,1.61,0,0,0,.088,2.664h0a1.639,1.639,0,0,0,1.844-.1A12.177,12.177,0,0,1,138.023,340.759Z" transform="translate(-49.918 -131.443)" fill="#455a64"/>
          <path id="Path_31509" data-name="Path 31509" d="M142.454,343.247a4.61,4.61,0,0,0-3.659-2.137,14.285,14.285,0,0,0-8.431,2.649,1.566,1.566,0,0,0,0,2.576h0a1.566,1.566,0,0,0,1.786-.117A12.324,12.324,0,0,1,142.454,343.247Z" transform="translate(-48.48 -130.169)" fill="#455a64"/>
          <path id="Path_31510" data-name="Path 31510" d="M146.84,345.531a5.137,5.137,0,0,0-3.805-1.961,13.846,13.846,0,0,0-8.094,2.693,1.566,1.566,0,0,0,.088,2.576h0a1.464,1.464,0,0,0,1.771-.1A11.709,11.709,0,0,1,146.84,345.531Z" transform="translate(-46.338 -129.028)" fill="#455a64"/>
          <path id="Path_31511" data-name="Path 31511" d="M76.523,332.26c.659-14.739,3.791-22.408,4.23-26.492,0,0,1.2-81.086,3.176-105.69l72.6-3.088c1.068,26.346,2.034,97.128,1.464,106.5-.542,8.972-4.186,86.794-4.186,86.794-10.246,3.205-21.179-1.464-21.179-1.464s-6.089-44.275-7.084-54.038a124.747,124.747,0,0,1,.673-26.346l-4.64-63.039s-5.606,48.886-8.372,67.328c-3.161,21.091-16.8,86.472-16.8,86.472-9.806,2.444-19.349-1.786-19.349-1.786S75.557,353.615,76.523,332.26Z" transform="translate(-73.281 -196.99)" fill="#455a64"/>
          <path id="Path_31512" data-name="Path 31512" d="M107.21,237.027l1.376-8.694c4.23-.629,14.944-7.318,21.281-13.173a50.5,50.5,0,0,1-17.8,16.408l-.22,68.469Z" transform="translate(-58.902 -188.566)" fill="#37474f"/>
        </g>
        <g id="freepik--top--inject-49-2" data-name="freepik--top--inject-49" transform="translate(0 27.529)">
          <path id="Path_31513" data-name="Path 31513" d="M132.483,187.116c-4.933-11.255-13.422-30.21-13.422-30.21L116.91,126.17a82.908,82.908,0,0,1,9.382.834c4.567.717,11.812,5.079,15.119,13.3,2.474,6.1,15.324,43.339,15.324,43.339l22.394-11.8c5.737-3.645,7.772-9.689,11.431-13.173s7.318-4.01,11.373-6.806,5.65-5.035,6.674-2.239-3.513,7.084-4.391,8.153-5.284,3.352.337,3.645,16.993-5.181,19.715-6.118,2.488,2.3,1.068,4.3S223.771,167.5,221.4,170.8c-2.517,3.513-3.879,5.02-9.28,7.113-5.02,1.932-15.427,2.43-20.784,5.518s-18.325,14.812-26.975,20.828c-11.607,8.079-18.135,8.606-22.687,2.166S134.225,191.083,132.483,187.116Z" transform="translate(27.357 -49.589)" fill="#ffa8a7"/>
          <path id="Path_31514" data-name="Path 31514" d="M114.84,125.784c7.611-.585,16.583-.117,21.545,4.391,3.967,3.615,5.459,5.855,9.88,18.354,2.927,8.387,9.192,27.707,9.192,27.707A39.987,39.987,0,0,0,133.5,189.687l-14.271-32.069Z" transform="translate(26.397 -49.861)" fill="#e0e0e0"/>
          <path id="Path_31515" data-name="Path 31515" d="M147.12,166.034a19.159,19.159,0,0,0-9.47,7.318s.542-5.855,8.782-9.353Z" transform="translate(36.973 -32.049)" fill="#f28f8f"/>
          <path id="Path_31516" data-name="Path 31516" d="M113.841,124.79a35.961,35.961,0,0,0-10.7,1.171c-6.689,1.771-18.676,5.137-18.676,5.137-3.805,1.976-5.284,8.562-6.147,12.353-2.752,12.134,4.391,39.519,5.489,50.189s-1.273,43.353-1.273,43.353c8.182,9.484,52.516,15.778,74.1,0,0,0,.937-75.041-1.186-85.814-3.22-16.305-8.006-24.048-24.882-25.028Z" transform="translate(9.174 -50.243)" fill="#f5f5f5"/>
          <path id="Path_31517" data-name="Path 31517" d="M110.484,97.758l-4.815,2.649a2.927,2.927,0,0,1,1.127-3.835,2.678,2.678,0,0,1,3.688,1.186Z" transform="translate(22 -63.462)" fill="#263238"/>
          <path id="Path_31518" data-name="Path 31518" d="M124.561,100.033l-4.391-3.381a2.664,2.664,0,0,1,3.82-.585A2.927,2.927,0,0,1,124.561,100.033Z" transform="translate(28.868 -63.805)" fill="#263238"/>
          <path id="Path_31519" data-name="Path 31519" d="M96.281,86.81s-5.181.717-7.084,4.669c-1.639,3.4-1.054,11.592,1.156,20.491a82.624,82.624,0,0,0,5.562,16.773,6.879,6.879,0,0,0,3.952,3.176l-.278-10.626-.381-7.318s4.728-6.469,5.254-11.709c.673-6.821-.761-9.616-.761-9.616Z" transform="translate(14.073 -67.838)" fill="#263238"/>
          <path id="Path_31520" data-name="Path 31520" d="M99.45,100.1a19.8,19.8,0,0,0,19.832,19.73c10.919,0,19.115-9,19.027-19.935s-8.284-19.686-19.218-19.642A19.789,19.789,0,0,0,99.45,100.1Z" transform="translate(19.262 -70.88)" fill="#263238"/>
          <path id="Path_31521" data-name="Path 31521" d="M100.49,112.978c-1.786,1.551-3.235-2.444-4.728-4.01s-6.4-3.674-8.782,1.464,2.137,12.587,5.855,14.022a5.342,5.342,0,0,0,6.308-1.991v23.418c5.635,10.158,15.573,9.836,20.886,9.265s6.469-6.089,2.591-10.538v-7.318a41.407,41.407,0,0,0,8.928.424c4.859-.761,7.318-4.391,8.782-9.7,2.342-8.475,3.293-22.7,0-39.138C134.886,84.656,116,85.359,104.574,92.6,105.466,107.343,102.188,111.441,100.49,112.978Z" transform="translate(13.172 -68.085)" fill="#ffa8a7"/>
          <path id="Path_31522" data-name="Path 31522" d="M138.415,86.5a35.7,35.7,0,0,0,.981-9.323c0-1.229-.307-2.722-1.464-3.191s-2.3.381-3.293,1.054c-4.215,2.839-9.455,3.644-14.534,3.923-8.782.483-22.2-.088-26.668,9.528-1.244,2.664-1.464,5.474,1,7.318a16.832,16.832,0,0,0,7.318,2.722c4.391.776,8.782,1.742,13.29,2.342s9.865,1.186,14.329-.19c3.762-1.156,7.582-2.152,10.377-5.137a14.315,14.315,0,0,0,3.835-9.572c0-.5-.1-1.127-.6-1.259a1.142,1.142,0,0,0-.717.146Z" transform="translate(16.053 -73.848)" fill="#263238"/>
          <path id="Path_31523" data-name="Path 31523" d="M117.4,124.2s-10.86-2.152-14.636-4.157a12.544,12.544,0,0,1-5.269-5.181,17.051,17.051,0,0,0,2.927,6.118c2.8,3.542,16.949,6.1,16.949,6.1Z" transform="translate(18.353 -54.833)" fill="#f28f8f"/>
          <path id="Path_31524" data-name="Path 31524" d="M111.148,102.987a2.444,2.444,0,1,1-2.444-2.517,2.488,2.488,0,0,1,2.444,2.517Z" transform="translate(22.419 -61.505)" fill="#263238"/>
          <path id="Path_31525" data-name="Path 31525" d="M113.456,114.491a2.3,2.3,0,1,1-2.313-2.371A2.342,2.342,0,0,1,113.456,114.491Z" transform="translate(23.624 -56.103)" fill="#b16668"/>
          <path id="Path_31526" data-name="Path 31526" d="M109.236,97.406l-5.035,3.176a3.118,3.118,0,0,1,.966-4.215,2.927,2.927,0,0,1,4.069,1.039Z" transform="translate(21.258 -63.607)" fill="#263238"/>
          <path id="Path_31527" data-name="Path 31527" d="M119.7,94.82l5.3,2.371a2.781,2.781,0,0,1-3.747,1.464A3.059,3.059,0,0,1,119.7,94.82Z" transform="translate(28.561 -64.124)" fill="#263238"/>
          <path id="Path_31528" data-name="Path 31528" d="M123.042,102.464a2.356,2.356,0,1,1-2.371-2.444,2.415,2.415,0,0,1,2.371,2.444Z" transform="translate(28.016 -61.713)" fill="#263238"/>
          <path id="Path_31529" data-name="Path 31529" d="M113.37,98.87l.878,16.276,7.713-2.049Z" transform="translate(25.716 -62.246)" fill="#f28f8f"/>
          <path id="Path_31530" data-name="Path 31530" d="M20.768,148.7c2.532,1.361,12.851,8.621,18.457,9.25,2.371.263,3.015-.117,2.927-.732-.117-.849-1.625-2.122-1.991-2.81-.629-1.2-4.391-6.177-2.927-8.782s2.737-.117,6.221,3.293,7.055,4.6,10.114,8.562,4.084,10.246,9.148,14.8l20.169,13.773s9.4-43.6,13.524-48.74c4.391-5.4,23.228,6.367,19.276,23.535s-12.953,46.968-19.218,52.808c-4.04,3.791-12.543.22-23.155-9.221-8.387-7.465-19.876-18.662-24.736-22.628s-14.958-6.1-19.6-8.782c-4.991-2.927-6.089-4.64-8.006-8.518-1.8-3.644-1-9.484-2.064-11.709S18.192,147.335,20.768,148.7Z" transform="translate(-18.343 -45.038)" fill="#ffa8a7"/>
          <path id="Path_31531" data-name="Path 31531" d="M91.584,129.09c6.469,4.04,6.791,9.924,7.113,16.656a69.625,69.625,0,0,1-3.688,23.184c-2.737,8.475-7.084,23.945-7.084,23.945s-16.891.4-25.585-7.113c0,0,3.966-16.686,6.762-29.273S75.293,130.51,91.584,129.09Z" transform="translate(2.056 -48.235)" fill="#e0e0e0"/>
          <path id="Path_31532" data-name="Path 31532" d="M62.39,170.919c4.61,2.561,7.318,8.065,8.153,10.246a16.1,16.1,0,0,0-7.67-12.485Z" transform="translate(2.079 -29.879)" fill="#f28f8f"/>
        </g>
        <g id="freepik--Outlet--inject-49" transform="translate(239.697 419.702)">
          <path id="Path_31533" data-name="Path 31533" d="M182.11,386.34l112.964,65.22v24.033L182.11,410.373Z" transform="translate(-182.11 -321.134)" fill="#0058ff"/>
          <path id="Path_31534" data-name="Path 31534" d="M182.11,386.34l112.964,65.22v24.033L182.11,410.373Z" transform="translate(-182.11 -321.134)" opacity="0.35"/>
          <path id="Path_31535" data-name="Path 31535" d="M372.254,386.34,259.29,451.56v24.033l112.964-65.22Z" transform="translate(-146.326 -321.134)" fill="#0058ff"/>
          <path id="Path_31536" data-name="Path 31536" d="M372.254,386.34,259.29,451.56v24.033l112.964-65.22Z" transform="translate(-146.326 -321.134)" opacity="0.2"/>
          <path id="Path_31537" data-name="Path 31537" d="M408.039,407,295.074,341.79,182.11,407l112.964,65.22Z" transform="translate(-182.11 -341.79)" fill="#0058ff"/>
          <path id="Path_31538" data-name="Path 31538" d="M408.039,407,295.074,341.79,182.11,407l112.964,65.22Z" transform="translate(-182.11 -341.79)" opacity="0.15"/>
          <path id="Path_31539" data-name="Path 31539" d="M295.074,451.56V444.7L193.995,386.34H182.11Z" transform="translate(-182.11 -321.134)" opacity="0.1"/>
          <path id="Path_31540" data-name="Path 31540" d="M259.29,341.79v6.865L360.37,407h11.885Z" transform="translate(-146.326 -341.79)" opacity="0.1"/>
          <path id="Path_31541" data-name="Path 31541" d="M372.254,386.34H360.37L259.29,444.7v6.865Z" transform="translate(-146.326 -321.134)" fill="#0058ff"/>
          <path id="Path_31542" data-name="Path 31542" d="M295.074,341.79v6.865L193.995,407H182.11Z" transform="translate(-182.11 -341.79)" fill="#0058ff"/>
          <path id="Path_31543" data-name="Path 31543" d="M276.071,367.5l48.535,28.014c3.63,2.108,3.63,5.5,0,7.6l-36.2,20.959a14.475,14.475,0,0,1-13.173,0L226.7,396.057c-3.63-2.108-3.63-5.5,0-7.6L262.913,367.5A14.475,14.475,0,0,1,276.071,367.5Z" transform="translate(-162.697 -330.602)" fill="#37474f"/>
          <path id="Path_31544" data-name="Path 31544" d="M287.167,421.205l35-20.213-47.334-27.326a14.636,14.636,0,0,0-13.173,0l-35,20.242,47.334,27.3A14.475,14.475,0,0,0,287.167,421.205Z" transform="translate(-161.454 -327.737)" fill="#455a64"/>
          <path id="Path_31545" data-name="Path 31545" d="M239.7,390.346,260.939,378.1a2.839,2.839,0,0,1,2.547,0l2.605,1.464c.7.4.7,1.054,0,1.464l-21.237,12.251a2.81,2.81,0,0,1-2.532,0l-2.605-1.464a.776.776,0,0,1-.015-1.464Z" transform="translate(-155.645 -325.097)" fill="#263238"/>
          <path id="Path_31546" data-name="Path 31546" d="M261.372,402.876l21.238-12.251a2.81,2.81,0,0,1,2.532,0l2.62,1.464c.7.4.7,1.054,0,1.464L266.524,405.8a2.81,2.81,0,0,1-2.532,0l-2.605-1.464a.776.776,0,0,1-.015-1.464Z" transform="translate(-145.597 -319.287)" fill="#263238"/>
          <path id="Path_31547" data-name="Path 31547" d="M230.7,422.552a14.11,14.11,0,0,0-6.411-11.08,4.464,4.464,0,0,0-4.523-.439L217,412.643a4.479,4.479,0,0,0-1.873,4.128,14.183,14.183,0,0,0,6.4,11.094,4.493,4.493,0,0,0,4.537.439l2.752-1.654a4.508,4.508,0,0,0,1.888-4.1Z" transform="translate(-166.813 -309.88)" fill="#0058ff"/>
          <path id="Path_31548" data-name="Path 31548" d="M221.516,412.606a14.109,14.109,0,0,1,6.411,11.08c0,4.084-2.927,5.738-6.411,3.7a14.182,14.182,0,0,1-6.4-11.094C215.12,412.225,217.989,410.571,221.516,412.606Z" transform="translate(-166.805 -309.36)" opacity="0.1"/>
        </g>
        <g id="freepik--Cable--inject-49" transform="translate(115.389 136.208)">
          <path id="Path_31549" data-name="Path 31549" d="M201.948,581.589a41.787,41.787,0,0,1-20.491-4.962l-74.939-43.265c-6.016-3.484-9.338-8.284-9.338-13.524s3.322-10.026,9.338-13.509l86.824-50.13c9.514-5.489,17.564-19.408,17.564-30.4V151.027a2.927,2.927,0,1,1,5.855,0V425.8c0,13.261-8.987,28.849-20.491,35.479l-86.824,50.13c-4.127,2.386-6.411,5.372-6.411,8.431s2.283,6.06,6.411,8.445l74.939,43.265c9.675,5.591,25.424,5.591,35.128,0l55.253-31.878a2.927,2.927,0,1,1,2.927,5.064l-55.253,31.893A41.714,41.714,0,0,1,201.948,581.589Z" transform="translate(-97.18 -148.1)" fill="#37474f"/>
        </g>
        <g id="freepik--exclamation-marks--inject-49" transform="translate(55.436)">
          <path id="Path_31550" data-name="Path 31550" d="M80.812,89.1a1.549,1.549,0,0,1,1.229-1.815l7.113-1.376a1.464,1.464,0,0,1,1.171.234,1.6,1.6,0,0,1,.659,1l1.1,5.708a1.6,1.6,0,0,1-1.229,1.83l-7.128,1.361a1.549,1.549,0,0,1-1.815-1.229ZM74.87,58.275a1.551,1.551,0,0,1,1.229-1.83l7.128-1.376A1.579,1.579,0,0,1,85.042,56.3l4.669,24.4a1.579,1.579,0,0,1-1.229,1.815l-7.128,1.376a1.579,1.579,0,0,1-1.815-1.229Z" transform="translate(-47.585 -55.039)" fill="#0058ff"/>
          <path id="Path_31551" data-name="Path 31551" d="M77.561,104.405a1.551,1.551,0,0,1,.117-2.2l5.4-4.845a1.593,1.593,0,0,1,2.2.117l3.879,4.391a1.551,1.551,0,0,1-.117,2.2l-5.328,4.786a1.593,1.593,0,0,1-2.2-.117ZM56.616,80.987a1.566,1.566,0,0,1-.4-1.127,1.464,1.464,0,0,1,.512-1.068l5.4-4.845a1.556,1.556,0,0,1,2.2.117L80.9,92.594a1.593,1.593,0,0,1-.117,2.2l-5.415,4.845a1.6,1.6,0,0,1-2.2-.117Z" transform="translate(-56.218 -46.458)" fill="#0058ff"/>
          <g id="Group_5959" data-name="Group 5959" transform="translate(0 27.088)" opacity="0.6">
            <path id="Path_31552" data-name="Path 31552" d="M77.561,104.405a1.551,1.551,0,0,1,.117-2.2l5.4-4.845a1.593,1.593,0,0,1,2.2.117l3.879,4.391a1.551,1.551,0,0,1-.117,2.2l-5.328,4.786a1.593,1.593,0,0,1-2.2-.117ZM56.616,80.987a1.566,1.566,0,0,1-.4-1.127,1.464,1.464,0,0,1,.512-1.068l5.4-4.845a1.556,1.556,0,0,1,2.2.117L80.9,92.594a1.593,1.593,0,0,1-.117,2.2l-5.415,4.845a1.6,1.6,0,0,1-2.2-.117Z" transform="translate(-56.218 -73.547)" fill="#fff"/>
          </g>
        </g>
      </g>
    </g>
    <g id="freepik--error-404--inject-49" transform="translate(261.992 90.759)">
      <g id="freepik--Text--inject-49">
        <path id="Path_31565" data-name="Path 31565" d="M201.832,96.574a.864.864,0,0,1,.644.278.878.878,0,0,1,.263.644v3.6a.878.878,0,0,1-.263.644.864.864,0,0,1-.644.278h-16.1a.849.849,0,0,1-.644-.278.893.893,0,0,1-.278-.644V79.142a.893.893,0,0,1,.278-.644.849.849,0,0,1,.644-.278h15.851a.951.951,0,0,1,.922.922v3.586a.893.893,0,0,1-.278.659.878.878,0,0,1-.644.263H191.1v3.674h9.733a.849.849,0,0,1,.644.278.893.893,0,0,1,.278.644v3.6a.893.893,0,0,1-.278.644.849.849,0,0,1-.644.278H191.1v3.805Z" transform="translate(-184.81 -77.869)" fill="#0058ff"/>
        <path id="Path_31566" data-name="Path 31566" d="M209.859,78.21a15.207,15.207,0,0,1,4.01.483,8.781,8.781,0,0,1,3.015,1.464,6.294,6.294,0,0,1,1.9,2.444,8.387,8.387,0,0,1,.659,3.44,7.86,7.86,0,0,1-1.054,4.245,6.747,6.747,0,0,1-2.927,2.561l4.215,8.094a.819.819,0,0,1,.1.381.746.746,0,0,1-.746.746h-4.625a1.273,1.273,0,0,1-.966-.307,2.928,2.928,0,0,1-.468-.615L209.2,93.828h-3.235v7.318a.878.878,0,0,1-.263.644.864.864,0,0,1-.644.278h-4.391a.864.864,0,0,1-.644-.278.878.878,0,0,1-.263-.644V79.191a.878.878,0,0,1,.264-.644.863.863,0,0,1,.644-.278ZM206.01,88.456h3.849a4.654,4.654,0,0,0,2.371-.542,2.093,2.093,0,0,0,.922-1.976,2.064,2.064,0,0,0-.922-1.961,4.654,4.654,0,0,0-2.371-.542h-3.893Z" transform="translate(-177.878 -77.874)" fill="#0058ff"/>
        <path id="Path_31567" data-name="Path 31567" d="M226,78.21a15.207,15.207,0,0,1,4.01.483,8.781,8.781,0,0,1,3.015,1.464,6.162,6.162,0,0,1,1.9,2.444,8.386,8.386,0,0,1,.659,3.44,7.86,7.86,0,0,1-1.054,4.245,6.747,6.747,0,0,1-2.927,2.561l4.215,8.094a.82.82,0,0,1,.1.381.746.746,0,0,1-.746.746h-4.625a1.273,1.273,0,0,1-.966-.307,2.926,2.926,0,0,1-.468-.615l-3.776-7.318h-3.118v7.318a.893.893,0,0,1-.278.644.864.864,0,0,1-.644.278h-4.464a.864.864,0,0,1-.644-.278.878.878,0,0,1-.263-.644V79.191a.878.878,0,0,1,.263-.644.863.863,0,0,1,.644-.278Zm-3.835,10.246H226a4.654,4.654,0,0,0,2.371-.542,2.093,2.093,0,0,0,.922-1.976,2.064,2.064,0,0,0-.922-1.961A4.654,4.654,0,0,0,226,83.436h-3.835Z" transform="translate(-170.381 -77.874)" fill="#0058ff"/>
        <path id="Path_31568" data-name="Path 31568" d="M231.51,87.2a10.449,10.449,0,0,1,.834-3.586,8.488,8.488,0,0,1,2.078-2.927,9.689,9.689,0,0,1,3.264-1.976,13.758,13.758,0,0,1,8.855,0,9.835,9.835,0,0,1,3.264,1.976,8.446,8.446,0,0,1,2.064,2.927A9.822,9.822,0,0,1,252.7,87.2c0,.966.073,1.991.073,3.059s0,2.064-.073,2.927a9.966,9.966,0,0,1-.834,3.6,8.928,8.928,0,0,1-2.064,2.927,9.573,9.573,0,0,1-3.293,1.961,14.022,14.022,0,0,1-8.855,0,9.441,9.441,0,0,1-3.264-1.961,8.972,8.972,0,0,1-2.078-2.927,10.612,10.612,0,0,1-.834-3.6V90.26C231.481,89.25,231.466,88.167,231.51,87.2Zm14.929,5.855a9.051,9.051,0,0,1,.073-1.361,10.77,10.77,0,0,0,0-1.537V88.694a7.694,7.694,0,0,0-.073-1.317,5.225,5.225,0,0,0-.351-1.551,3.615,3.615,0,0,0-.82-1.244,3.834,3.834,0,0,0-1.3-.834,5.078,5.078,0,0,0-1.844-.307,4.931,4.931,0,0,0-1.83.307,3.761,3.761,0,0,0-1.317.834,3.835,3.835,0,0,0-.82,1.244,5.227,5.227,0,0,0-.351,1.551,11.171,11.171,0,0,1-.088,1.317v3a6.651,6.651,0,0,0,.088,1.361,4.582,4.582,0,0,0,1.171,2.825,4.084,4.084,0,0,0,3.147,1.112,4.025,4.025,0,0,0,3.132-1.112,4.771,4.771,0,0,0,1.186-2.8Z" transform="translate(-163.172 -77.98)" fill="#0058ff"/>
        <path id="Path_31569" data-name="Path 31569" d="M258.854,78.21a15.3,15.3,0,0,1,4.01.483,8.65,8.65,0,0,1,3,1.464,6.323,6.323,0,0,1,1.917,2.444,8.386,8.386,0,0,1,.659,3.44,7.86,7.86,0,0,1-1.054,4.245,6.7,6.7,0,0,1-3,2.561l4.215,8.094a.864.864,0,0,1,.117.381.732.732,0,0,1-.234.527.717.717,0,0,1-.527.22h-4.625a1.273,1.273,0,0,1-.966-.307,2.766,2.766,0,0,1-.454-.615l-3.776-7.318h-3.161v7.318a.951.951,0,0,1-.922.922h-4.391a.951.951,0,0,1-.922-.922V79.191a.951.951,0,0,1,.922-.922ZM255,88.456h3.849a4.6,4.6,0,0,0,2.357-.542,2.537,2.537,0,0,0,0-3.937,4.6,4.6,0,0,0-2.356-.542h-3.879Z" transform="translate(-155.169 -77.874)" fill="#0058ff"/>
        <path id="Path_31570" data-name="Path 31570" d="M281.449,102.024a.893.893,0,0,1-.659-.278.878.878,0,0,1-.263-.644V97.633H269.812a.878.878,0,0,1-.644-.263.893.893,0,0,1-.278-.659v-3.6a2.386,2.386,0,0,1,.439-1.464L279.5,78.825a2.021,2.021,0,0,1,.556-.5,1.845,1.845,0,0,1,.7-.117H285.9a.849.849,0,0,1,.644.278.893.893,0,0,1,.278.644V92.188h2.927a.922.922,0,0,1,.644.278.878.878,0,0,1,.263.644v3.6a.937.937,0,0,1-.263.659.908.908,0,0,1-.644.263H286.82V101.1a.893.893,0,0,1-.278.644.849.849,0,0,1-.644.278Zm-.688-9.836v-6.25l-4.962,6.25Z" transform="translate(-145.827 -77.874)" fill="#0058ff"/>
        <path id="Path_31571" data-name="Path 31571" d="M295.648,78a11.709,11.709,0,0,1,4.391.746,8.781,8.781,0,0,1,3.044,2.005,8.225,8.225,0,0,1,1.8,2.927,12.908,12.908,0,0,1,.7,3.527c0,.966,0,1.991,0,3.059v2.927a12.906,12.906,0,0,1-.7,3.527,7.991,7.991,0,0,1-1.8,2.927,8.782,8.782,0,0,1-3.044,2.005,13.29,13.29,0,0,1-8.782,0,8.782,8.782,0,0,1-3.044-2.005,7.992,7.992,0,0,1-1.8-2.927,12.908,12.908,0,0,1-.7-3.527c0-.922,0-1.917,0-2.927V87.207a12.911,12.911,0,0,1,.7-3.527,8.226,8.226,0,0,1,1.8-2.927,8.781,8.781,0,0,1,3.044-2.005A11.709,11.709,0,0,1,295.648,78Zm3.659,15.076c.088-1.932.088-3.835,0-5.723a8.169,8.169,0,0,0-.263-1.551,3.381,3.381,0,0,0-.585-1.244,2.927,2.927,0,0,0-1.1-.834,4.1,4.1,0,0,0-1.7-.307,4.142,4.142,0,0,0-1.7.307,2.927,2.927,0,0,0-1.1.834,3.644,3.644,0,0,0-.6,1.244,6.363,6.363,0,0,0-.249,1.551,53.3,53.3,0,0,0,0,5.723,8.414,8.414,0,0,0,.219,1.566,3.544,3.544,0,0,0,.615,1.244,2.927,2.927,0,0,0,1.112.82,4.142,4.142,0,0,0,1.7.307,4.1,4.1,0,0,0,1.7-.307,2.927,2.927,0,0,0,1.112-.82,3.542,3.542,0,0,0,.615-1.244A8.412,8.412,0,0,0,299.307,93.077Z" transform="translate(-138.028 -77.972)" fill="#0058ff"/>
        <path id="Path_31572" data-name="Path 31572" d="M313.769,102.024a.951.951,0,0,1-.922-.922V97.633H302.133a.878.878,0,0,1-.644-.263.951.951,0,0,1-.278-.659v-3.6a2.3,2.3,0,0,1,.454-1.464l10.158-12.822a1.859,1.859,0,0,1,.571-.5,1.713,1.713,0,0,1,.688-.117h5.137a.951.951,0,0,1,.922.922V92.188h2.927a.951.951,0,0,1,.922.922v3.6a.951.951,0,0,1-.278.659.878.878,0,0,1-.644.263H319.14V101.1a.951.951,0,0,1-.922.922Zm-.746-9.836v-6.25l-4.962,6.25Z" transform="translate(-130.842 -77.874)" fill="#0058ff"/>
      </g>
    </g>
  </g>
</svg>
