<svg xmlns="http://www.w3.org/2000/svg" width="100" height="100" viewBox="0 0 ">
    <defs>
        <filter id="kgc750kjfa" x="0" y="0" width="386" height="442" filterUnits="userSpaceOnUse">
            <feOffset dy="24"/>
            <feGaussianBlur stdDeviation="21" result="blur"/>
            <feFlood flood-opacity=".078"/>
            <feComposite operator="in" in2="blur"/>
            <feComposite in="SourceGraphic"/>
        </filter>
    </defs>
    <g data-name="Group 10474">
        <g data-name="Group 3846">
            <path data-name="Path 25594" d="M10.669 21.337a10.669 10.669 0 1 1 7.548-3.121 10.634 10.634 0 0 1-7.548 3.121m0-18.864a8.2 8.2 0 1 0 5.8 2.4 8.174 8.174 0 0 0-5.8-2.4" transform="translate(0 .001)" style="fill:#0058ff"/>
            <path data-name="Path 25595" d="M24.036 46.2a5.63 5.63 0 0 1-.992-.087l-12.862-2.279a5.234 5.234 0 0 1-4.2-3.988L1.609 16.4a1.237 1.237 0 1 1 2.431-.455l4.366 23.4a2.75 2.75 0 0 0 2.207 2.055l12.862 2.278a3.186 3.186 0 0 0 1.319-6.23l-9.805-2.419a1.235 1.235 0 0 1-.918-.958l-1.771-8.86a1.239 1.239 0 0 1 .686-1.362A22.675 22.675 0 0 0 23.85 12.987a1.235 1.235 0 0 1 1.362-.686l8.858 1.771a1.238 1.238 0 0 1 .958.916l2.417 9.805a3.186 3.186 0 0 0 6.23-1.317L41.4 10.613A2.769 2.769 0 0 0 39.291 8.4L15.943 4.041A1.237 1.237 0 1 1 16.4 1.61l23.4 4.365a5.253 5.253 0 0 1 4.041 4.207l2.277 12.862a5.659 5.659 0 0 1-11.067 2.341l-2.231-9.042-7.157-1.43a25.18 25.18 0 0 1-10.751 10.745l1.432 7.157 9.042 2.23a5.66 5.66 0 0 1-1.35 11.155" transform="translate(1.172 1.171)" style="fill:#0058ff"/>
            <path data-name="Path 25596" d="M55.93 66.605a10.673 10.673 0 1 1 7.548-3.126 10.6 10.6 0 0 1-7.548 3.126m0-18.873a8.2 8.2 0 1 0 5.8 2.4 8.146 8.146 0 0 0-5.8-2.4" transform="translate(33.396 33.395)" style="fill:#0058ff"/>
            <path data-name="Path 25597" d="M60.311 74.892a1.275 1.275 0 0 1-.228-.021l-23.4-4.366a5.252 5.252 0 0 1-4.037-4.205l-2.278-12.864a5.66 5.66 0 0 1 11.068-2.343l2.23 9.044 7.157 1.43A25.165 25.165 0 0 1 61.57 50.822l-1.432-7.157-9.038-2.231a5.659 5.659 0 0 1 2.341-11.067L66.3 32.644a5.238 5.238 0 0 1 4.2 3.99l4.376 23.447a1.237 1.237 0 1 1-2.431.455l-4.366-23.4a2.75 2.75 0 0 0-2.207-2.058L53.005 32.8a3.187 3.187 0 0 0-1.317 6.232l9.8 2.417a1.237 1.237 0 0 1 .918.958l1.771 8.858a1.238 1.238 0 0 1-.686 1.362 22.675 22.675 0 0 0-10.859 10.866 1.237 1.237 0 0 1-1.362.686l-8.86-1.771a1.237 1.237 0 0 1-.958-.918l-2.417-9.805a3.186 3.186 0 0 0-6.23 1.319l2.278 12.862a2.764 2.764 0 0 0 2.108 2.218l23.346 4.356a1.237 1.237 0 0 1-.226 2.452" transform="translate(22.343 22.343)" style="fill:#0058ff"/>
            <path data-name="Path 25598" d="M43.59 78.424A34.793 34.793 0 0 1 9.142 38.09a1.244 1.244 0 0 1 .5-.813 1.23 1.23 0 0 1 .933-.21l7.638 1.352a3.186 3.186 0 0 0 1.319-6.23l-6.72-1.659a1.237 1.237 0 0 1-.825-1.724 34.385 34.385 0 0 1 16.819-16.819 1.237 1.237 0 0 1 1.724.825l1.658 6.722a3.187 3.187 0 0 0 6.232-1.317l-1.354-7.638a1.236 1.236 0 0 1 1.025-1.437 34.811 34.811 0 0 1 39.9 39.9 1.236 1.236 0 0 1-1.437 1.025l-7.636-1.352a3.186 3.186 0 0 0-1.319 6.23l6.724 1.658a1.235 1.235 0 0 1 .824 1.724A34.372 34.372 0 0 1 58.332 75.15a1.242 1.242 0 0 1-1.057-.005 1.229 1.229 0 0 1-.667-.82L54.949 67.6a3.186 3.186 0 0 0-6.23 1.319l1.354 7.638a1.236 1.236 0 0 1-1.025 1.437 35.022 35.022 0 0 1-5.457.429m-32.176-38.7a32.328 32.328 0 0 0 36 36l-1.13-6.371a5.66 5.66 0 0 1 11.065-2.344l1.289 5.229a31.769 31.769 0 0 0 13.6-13.6l-5.229-1.289a5.66 5.66 0 0 1 2.343-11.068l6.373 1.13a32.328 32.328 0 0 0-36-36l1.128 6.373a5.659 5.659 0 0 1-11.067 2.341L28.5 14.9a31.778 31.778 0 0 0-13.6 13.6l5.227 1.289a5.66 5.66 0 0 1-2.341 11.068z" transform="translate(6.429 6.429)" style="opacity:.5;fill:#0058ff"/>
            <path data-name="Path 25599" d="M47.961 22.683a1.233 1.233 0 0 1-.874-.363 26.326 26.326 0 0 0-16.7-7.633 1.237 1.237 0 0 1 .179-2.468 28.784 28.784 0 0 1 18.272 8.352 1.237 1.237 0 0 1-.874 2.112" transform="translate(21.573 9.014)" style="opacity:.5;fill:#0058ff"/>
            <path data-name="Path 25600" d="M44.922 46.834a1.243 1.243 0 0 1-.573-.141L35.934 42.3h-6.37a3.715 3.715 0 0 1-3.71-3.71V32.2a3.714 3.714 0 0 1 3.71-3.71h12.883a3.713 3.713 0 0 1 3.71 3.71v13.4a1.235 1.235 0 0 1-1.236 1.237M29.564 30.962a1.239 1.239 0 0 0-1.237 1.238v6.39a1.239 1.239 0 0 0 1.237 1.236h6.673a1.242 1.242 0 0 1 .572.141l6.875 3.59V32.2a1.238 1.238 0 0 0-1.237-1.237z" transform="translate(19.077 21.021)" style="opacity:.5;fill:#0058ff"/>
            <path data-name="Path 25601" d="M20.277 37.563a1.215 1.215 0 0 1-.641-.181 1.234 1.234 0 0 1-.6-1.055v-13.4a3.713 3.713 0 0 1 3.71-3.71h12.887a3.712 3.712 0 0 1 3.71 3.71v6.388a3.714 3.714 0 0 1-3.71 3.71h-6.367l-8.417 4.395a1.222 1.222 0 0 1-.572.143m2.473-15.874a1.239 1.239 0 0 0-1.237 1.239v11.357l6.875-3.59a1.224 1.224 0 0 1 .573-.143h6.672a1.236 1.236 0 0 0 1.237-1.236v-6.388a1.238 1.238 0 0 0-1.237-1.239z" transform="translate(14.049 14.18)" style="opacity:.5;fill:#0058ff"/>
            <path data-name="Path 25602" d="M33.678 33.205a1.391 1.391 0 1 1-1.392-1.392 1.393 1.393 0 0 1 1.392 1.392" transform="translate(22.797 23.474)" style="opacity:.5;fill:#0058ff"/>
            <path data-name="Path 25603" d="M36.05 33.205a1.391 1.391 0 1 1-1.392-1.392 1.393 1.393 0 0 1 1.392 1.392" transform="translate(24.547 23.474)" style="opacity:.5;fill:#0058ff"/>
            <path data-name="Path 25604" d="M31.305 33.205a1.391 1.391 0 1 1-1.392-1.392 1.392 1.392 0 0 1 1.392 1.392" transform="translate(21.046 23.474)" style="opacity:.5;fill:#0058ff"/>
            <path data-name="Path 25605" d="M26.865 23.834a1.392 1.392 0 1 1-1.392-1.392 1.394 1.394 0 0 1 1.392 1.392" transform="translate(17.768 16.559)" style="opacity:.5;fill:#0058ff"/>
            <path data-name="Path 25606" d="M29.236 23.834a1.391 1.391 0 1 1-1.392-1.392 1.392 1.392 0 0 1 1.392 1.392" transform="translate(19.519 16.559)" style="opacity:.5;fill:#0058ff"/>
            <path data-name="Path 25607" d="M24.491 23.834a1.391 1.391 0 1 1-1.391-1.392 1.393 1.393 0 0 1 1.392 1.392" transform="translate(16.018 16.559)" style="opacity:.5;fill:#0058ff"/>
        </g>
    </g>
</svg>
