<svg xmlns="http://www.w3.org/2000/svg" width="33.5" height="33.5" viewBox="0 0 33.5 33.5">
    <g data-name="Group 8429">
        <path data-name="Path 29820" d="M6.88 19.392V16.08" transform="translate(1.678 7.198)" style="fill:none;stroke:#fff;stroke-linecap:round;stroke-width:1.5px"/>
        <path data-name="Path 29821" d="M12 20.634V14.01" transform="translate(4.75 5.956)" style="fill:none;stroke:#fff;stroke-linecap:round;stroke-width:1.5px"/>
        <path data-name="Path 29822" d="M17.12 21.882V11.93" transform="translate(7.822 4.708)" style="fill:none;stroke:#fff;stroke-linecap:round;stroke-width:1.5px"/>
        <path data-name="Path 29823" d="m23.264 5.85-.736.864A30.211 30.211 0 0 1 6.88 16.378" transform="translate(1.678 1.06)" style="fill:none;stroke:#fff;stroke-linecap:round;stroke-width:1.5px"/>
        <path data-name="Path 29824" d="M14.19 5.85h4.688v4.672" transform="translate(6.064 1.06)" style="stroke-linejoin:round;fill:none;stroke:#fff;stroke-linecap:round;stroke-width:1.5px"/>
        <path data-name="Path 29825" d="M13.2 34h9.6c8 0 11.2-3.2 11.2-11.2v-9.6C34 5.2 30.8 2 22.8 2h-9.6C5.2 2 2 5.2 2 13.2v9.6C2 30.8 5.2 34 13.2 34z" style="stroke-linejoin:round;fill:none;stroke:#fff;stroke-linecap:round;stroke-width:1.5px" transform="translate(-1.25 -1.25)"/>
    </g>
</svg>
