<svg xmlns="http://www.w3.org/2000/svg" width="92.923" height="15.971" viewBox="0 0 92.923 15.971">
  <path id="Path_30334" data-name="Path 30334" d="M15.151-41.031v9.375L7.688-41.031H4.814V-25.59H8.245v-9.375L15.73-25.59h2.852V-41.031ZM25.595-28.457v-3.574h6.97v-2.78h-6.97v-3.353h7.892v-2.868H22.142V-25.59H33.765v-2.868Zm15.87,3.132c4.289,0,6.369-2.206,6.369-4.787,0-5.669-8.728-3.706-8.728-6.552,0-.971.793-1.765,2.852-1.765a8.3,8.3,0,0,1,4.16,1.213l1.072-2.713A9.852,9.852,0,0,0,41.979-41.3c-4.268,0-6.326,2.184-6.326,4.809,0,5.736,8.728,3.75,8.728,6.64,0,.949-.836,1.654-2.9,1.654a8.662,8.662,0,0,1-4.954-1.61l-1.18,2.691A10.485,10.485,0,0,0,41.464-25.325ZM60.508-41.031v6.088h-6.82v-6.088H50.214V-25.59h3.474v-6.331h6.82v6.331h3.474V-41.031ZM78.758-25.59H82.4L75.691-41.031H72.26L65.569-25.59h3.56l1.33-3.309h6.97Zm-7.184-6.022,2.38-5.912,2.38,5.912Zm22.732-9.419v9.375l-7.463-9.375H83.969V-25.59H87.4v-9.375l7.484,9.375h2.852V-41.031Z" transform="translate(-4.814 41.296)" fill="#001333"/>
</svg>
