<svg xmlns="http://www.w3.org/2000/svg" width="92.862" height="20.313" viewBox="0 0 92.862 20.313">
  <path id="Path_29808" data-name="Path 29808" d="M9.828-20.982c5.757,0,8.549-2.806,8.549-6.088,0-7.211-11.716-4.714-11.716-8.333,0-1.235,1.065-2.245,3.828-2.245a11.6,11.6,0,0,1,5.584,1.543l1.439-3.451a13.791,13.791,0,0,0-6.995-1.74c-5.728,0-8.492,2.778-8.492,6.116,0,7.295,11.716,4.77,11.716,8.445,0,1.206-1.123,2.1-3.886,2.1a12.064,12.064,0,0,1-6.649-2.048L1.624-23.255A14.633,14.633,0,0,0,9.828-20.982ZM35.389-40.959v7.744H26.236v-7.744H21.572v19.64h4.663v-8.052h9.154v8.052h4.663v-19.64Zm9.442,19.64h4.663v-19.64H44.831ZM68.9-40.959,62.678-26.931,56.547-40.959H51.509L60.2-21.319h4.606l8.722-19.64Zm20.7,19.64h4.894l-9.01-19.64H80.87l-8.981,19.64h4.778l1.785-4.209h9.355Zm-9.643-7.66,3.2-7.519,3.2,7.519Z" transform="translate(-1.624 41.296)" fill="#001333"/>
</svg>
