<svg data-name="Group 3844" xmlns="http://www.w3.org/2000/svg" width="63.763" height="100" viewBox="0 0 63.763 100">
    <defs>
        <clipPath id="jvqqvmigla">
            <path data-name="Rectangle 2004" style="fill:#0058ff" d="M0 0h63.763v100H0z"/>
        </clipPath>
    </defs>
    <g data-name="Group 3843" style="clip-path:url(#jvqqvmigla)">
        <path data-name="Path 25570" d="m15.7 74.41-2.157-2.157L16 69.8l.516-9.1a1.526 1.526 0 0 1 .14-.556l9.629-20.719c.181-.349 1.559-2.857 3.957-3.007 1.543-.09 2.955.774 4.21 2.584 2.258 3.258 1.421 8.669.445 12.348l22.43-22.431a5.788 5.788 0 0 1 4.01-1.719 5.611 5.611 0 0 1 4.023 1.615 5.506 5.506 0 0 1 1.614 4.023 5.788 5.788 0 0 1-1.713 4.012L63.1 34.7a2.746 2.746 0 0 0 .819-1.9 2.478 2.478 0 0 0-.721-1.814 2.553 2.553 0 0 0-1.813-.721 2.755 2.755 0 0 0-1.9.819L35.208 55.35a1.516 1.516 0 0 1-.816.423l-1.886.33a1.526 1.526 0 0 1-1.683-2.061c1.041-2.649 3.27-10.2 1.119-13.3-.671-.968-1.222-1.306-1.513-1.277-.5.031-1.174.857-1.411 1.311l-9.474 20.387-.533 9.392a1.523 1.523 0 0 1-.445.993z" transform="translate(-3.212 -6.45)" style="fill:#0058ff"/>
        <path data-name="Rectangle 1997" transform="rotate(-45 78.566 -23.11)" style="fill:#0058ff" d="M0 0h29.048v3.051H0z"/>
        <path data-name="Path 25571" d="M54.05 63.259 51.893 61.1l6.449-6.449a5.613 5.613 0 1 1 7.936 7.936l-2.158-2.156a2.564 2.564 0 1 0-3.62-3.62z" transform="translate(-12.304 -12.553)" style="fill:#0058ff"/>
        <path data-name="Rectangle 1998" transform="rotate(-45 88.79 -26.324)" style="fill:#0058ff" d="M0 0h10.177v3.051H0z"/>
        <path data-name="Path 25572" d="m72.446 73.574-2.158-2.157a2.564 2.564 0 1 0-3.62-3.621l-2.158-2.158a5.613 5.613 0 1 1 7.936 7.936" transform="translate(-15.296 -15.157)" style="fill:#0058ff"/>
        <path data-name="Rectangle 1999" transform="rotate(-45 99.57 -28.2)" style="fill:#0058ff" d="M0 0h8.328v3.051H0z"/>
        <path data-name="Path 25573" d="M76.757 84.412 74.6 82.254a2.758 2.758 0 0 0 .82-1.906 2.48 2.48 0 0 0-.722-1.813 2.636 2.636 0 0 0-3.719.1l-2.157-2.157a5.687 5.687 0 0 1 8.034-.1A5.5 5.5 0 0 1 78.47 80.4a5.793 5.793 0 0 1-1.713 4.013" transform="translate(-16.318 -17.727)" style="fill:#0058ff"/>
        <path data-name="Path 25574" d="m42.63 109.328-2.158-2.157 2.656-2.656a1.529 1.529 0 0 1 .617-.375l6.7-2.127 17.432-17.432 2.157 2.158-17.693 17.694a1.515 1.515 0 0 1-.618.375l-6.7 2.127z" transform="translate(-9.596 -20.055)" style="fill:#0058ff"/>
        <path data-name="Path 25575" d="m30.308 119.316-2.157-2.157 6.032-6.033L8.19 85.132l-6.033 6.034L0 89.007 7.112 81.9a1.57 1.57 0 0 1 2.157 0l28.151 28.147a1.524 1.524 0 0 1 0 2.157z" transform="translate(0 -19.316)" style="fill:#0058ff"/>
        <path data-name="Rectangle 2000" transform="rotate(-45 114.722 18.73)" style="opacity:.5;fill:#0058ff" d="M0 0h3.051v9.743H0z"/>
        <path data-name="Path 25576" d="M24.371 109.909a1.5 1.5 0 0 1-1.083-.45 1.524 1.524 0 0 1-.442-1.076 1.314 1.314 0 0 1 .031-.3 1.385 1.385 0 0 1 .084-.29 1.246 1.246 0 0 1 .145-.259 1.184 1.184 0 0 1 .42-.42 1.285 1.285 0 0 1 .259-.146 1.429 1.429 0 0 1 .29-.083 1.538 1.538 0 0 1 1.373.412 1.365 1.365 0 0 1 .191.237 1.73 1.73 0 0 1 .145.259 2.074 2.074 0 0 1 .084.29 1.314 1.314 0 0 1 .031.3 1.549 1.549 0 0 1-.114.587 1.434 1.434 0 0 1-.336.488 1.087 1.087 0 0 1-.229.191 1.246 1.246 0 0 1-.259.145 1.9 1.9 0 0 1-.29.084 1.967 1.967 0 0 1-.3.031" transform="translate(-5.417 -25.337)" style="opacity:.5;fill:#0058ff"/>
        <path data-name="Rectangle 2001" transform="rotate(-8.077 18.021 -212.003)" style="opacity:.5;fill:#0058ff" d="M0 0h3.051v13.542H0z"/>
        <path data-name="Rectangle 2002" transform="matrix(.601 -.8 .8 .601 40.532 17.992)" style="opacity:.5;fill:#0058ff" d="M0 0h13.542v3.051H0z"/>
        <path data-name="Rectangle 2003" transform="rotate(-53.06 21.674 -8.034)" style="opacity:.5;fill:#0058ff" d="M0 0h3.051v13.541H0z"/>
    </g>
</svg>
