<svg xmlns="http://www.w3.org/2000/svg" width="92.862" height="27.568" viewBox="0 0 92.862 27.568">
  <path id="Path_3239" data-name="Path 3239" d="M12.569-13.728c7.681,0,11.406-3.808,11.406-8.263,0-9.786-15.631-6.4-15.631-11.309,0-1.675,1.421-3.046,5.108-3.046a15.282,15.282,0,0,1,7.45,2.094l1.92-4.684A18.154,18.154,0,0,0,13.491-41.3c-7.642,0-11.329,3.77-11.329,8.3,0,9.9,15.631,6.473,15.631,11.461,0,1.637-1.5,2.856-5.185,2.856a15.906,15.906,0,0,1-8.871-2.78L1.624-16.812C4.005-14.984,8.306-13.728,12.569-13.728Zm15.669-.457H34.46V-40.839H28.238ZM60.344-40.839,52.049-21.8l-8.18-19.039H37.148l11.6,26.655h6.145L66.527-40.839ZM87.957-14.185h6.529L82.465-40.839H76.321L64.338-14.185h6.375L73.095-19.9H85.576ZM75.092-24.58l4.263-10.2,4.263,10.2Z" transform="translate(-1.624 41.296)" fill="#001333"/>
</svg>
