<svg xmlns="http://www.w3.org/2000/svg" width="98.382" height="100" viewBox="0 0 98.382 100">
    <defs>
        <clipPath id="azkjpo98pa">
            <path data-name="Rectangle 2005" style="fill:#0058ff" d="M0 0h98.382v100H0z"/>
        </clipPath>
    </defs>
    <g data-name="Group 3845" style="clip-path:url(#azkjpo98pa)">
        <path data-name="Path 25577" d="M64.466 65.136a5.438 5.438 0 0 1-2.969-.879L44.1 52.911a1.267 1.267 0 0 1 1.385-2.122L62.88 62.133a2.894 2.894 0 0 0 4.112-1.022 2.894 2.894 0 0 0-.99-3.85L41.881 42.077a6.768 6.768 0 0 0-3.612-1.041H26.888v3a5.141 5.141 0 1 1-10.282 0v-8.659a3.468 3.468 0 0 1 1.983-3.124l9.906-4.662a1.287 1.287 0 0 1 .539-.119h27.052a1.267 1.267 0 1 1 0 2.533H29.319l-9.651 4.543a.918.918 0 0 0-.527.83v8.658a2.607 2.607 0 1 0 5.214 0v-4.267a1.265 1.265 0 0 1 1.267-1.269h12.647a9.31 9.31 0 0 1 4.961 1.429l24.122 15.187a5.425 5.425 0 0 1-2.885 10.02" transform="translate(12.954 21.43)" style="fill:#0058ff"/>
        <path data-name="Path 25578" d="M44.847 58.7a5.642 5.642 0 0 1-3.156-.968l-12.278-8.249a1.267 1.267 0 1 1 1.413-2.1L43.1 55.631a3.149 3.149 0 1 0 3.478-5.251L35.424 43.1a1.266 1.266 0 1 1 1.383-2.122l11.159 7.275a5.685 5.685 0 0 1-1.953 10.328 5.773 5.773 0 0 1-1.166.119" transform="translate(22.506 31.808)" style="fill:#0058ff"/>
        <path data-name="Path 25579" d="M38.389 59.809a5.6 5.6 0 0 1-3.035-.89l-8.436-5.433a1.267 1.267 0 1 1 1.372-2.131l8.436 5.433a3.106 3.106 0 0 0 4.155-.746 3.1 3.1 0 0 0-.749-4.432l-5.5-3.7a1.266 1.266 0 1 1 1.412-2.1l5.5 3.7a5.631 5.631 0 0 1 1.362 8.057 5.645 5.645 0 0 1-4.518 2.245" transform="translate(20.545 35.567)" style="fill:#0058ff"/>
        <path data-name="Path 25580" d="M29.233 60.577a5.441 5.441 0 0 1-2.859-.808l-.915-.562a1.267 1.267 0 0 1 1.328-2.157l.915.563a2.95 2.95 0 0 0 3.939-.8 2.942 2.942 0 0 0-.8-4.178L28.768 51.3a1.267 1.267 0 1 1 1.372-2.131l2.069 1.331a5.472 5.472 0 0 1-2.976 10.075" transform="translate(19.389 38.199)" style="fill:#0058ff"/>
        <path data-name="Path 25581" d="M25.182 60.835a5.076 5.076 0 0 1-3.782-8.462l.424-.473a5.083 5.083 0 1 1 7.533 6.827l-.431.468a5.069 5.069 0 0 1-3.747 1.641m.429-8.094a2.54 2.54 0 0 0-1.9.847l-.424.474a2.547 2.547 0 0 0 .3 3.683 2.55 2.55 0 0 0 3.469-.263l.429-.468a2.545 2.545 0 0 0-.251-3.683 2.569 2.569 0 0 0-1.629-.589" transform="translate(15.685 39.165)" style="fill:#0058ff"/>
        <path data-name="Path 25582" d="M21.2 61.31a5.095 5.095 0 0 1-3.816-8.466l5.328-6.036a5.076 5.076 0 0 1 7.054-.562l-.737 1.034.8-.979a5.092 5.092 0 0 1 .548 7.346l-5.4 5.979A5.076 5.076 0 0 1 21.2 61.31m5.328-13.694a2.551 2.551 0 0 0-1.917.87l-5.328 6.036a2.558 2.558 0 0 0 .3 3.67 2.556 2.556 0 0 0 3.517-.262l5.4-5.979a2.561 2.561 0 0 0-.272-3.69 2.621 2.621 0 0 0-1.7-.644" transform="translate(12.562 35.164)" style="fill:#0058ff"/>
        <path data-name="Path 25583" d="M18.273 56.549a5.179 5.179 0 0 1-4.019-8.441l1.812-2.232a5.239 5.239 0 1 1 8 6.768l-1.9 2.156a5.167 5.167 0 0 1-3.886 1.75m1.869-10.073a2.706 2.706 0 0 0-2.108 1L16.223 49.7a2.645 2.645 0 0 0 4.037 3.418l1.9-2.157a2.7 2.7 0 0 0-2.022-4.489" transform="translate(10.217 34.281)" style="fill:#0058ff"/>
        <path data-name="Path 25584" d="M15.161 52.511a4.833 4.833 0 0 1-2.9-.968 4.848 4.848 0 0 1-.835-7.033l.817-.97a4.847 4.847 0 0 1 7.49 6.154l-.79.99a4.827 4.827 0 0 1-3.783 1.828m.789-8.158a2.312 2.312 0 0 0-1.769.822l-.817.968a2.33 2.33 0 1 0 3.6 2.957l.79-.99a2.314 2.314 0 0 0-1.807-3.758" transform="translate(8.022 32.621)" style="fill:#0058ff"/>
        <path data-name="Path 25585" d="M15.618 56.3a1.264 1.264 0 0 1-.913-.388l-7.15-7.426a1.263 1.263 0 0 1-.121-1.609L20.3 28.672a1.262 1.262 0 0 1 1.034-.536H33.86a1.267 1.267 0 1 1 0 2.533H21.992L10.107 47.482l6.424 6.672a1.267 1.267 0 0 1-.913 2.145" transform="translate(5.616 21.948)" style="fill:#0058ff"/>
        <path data-name="Path 25586" d="M56.48 58.452a4.4 4.4 0 0 1-3.651-1.946C49.6 51.733 42.6 41.182 38.724 35.319a4.43 4.43 0 0 1 1.008-5.951l11.44-8.719a1.266 1.266 0 1 1 1.534 2.015l-11.439 8.717a1.892 1.892 0 0 0-.431 2.54c3.879 5.858 10.865 16.4 14.089 21.165a1.881 1.881 0 0 0 2.565.538l9.31-5.853a1.267 1.267 0 0 1 1.349 2.145l-9.317 5.853a4.413 4.413 0 0 1-2.357.684" transform="translate(29.638 15.905)" style="fill:#0058ff"/>
        <path data-name="Path 25587" d="M11.542 56.787a4.4 4.4 0 0 1-2.182-.579L.643 51.281a1.266 1.266 0 1 1 1.248-2.2L10.607 54a1.88 1.88 0 0 0 2.471-.559l13.083-18.68a1.876 1.876 0 0 0-.333-2.526L13.278 21.9a1.266 1.266 0 1 1 1.611-1.954l12.56 10.346a4.394 4.394 0 0 1 .789 5.926L15.154 54.9a4.4 4.4 0 0 1-3.612 1.889" transform="translate(0 15.334)" style="fill:#0058ff"/>
        <path data-name="Path 25588" d="M43.616 46.909a1.267 1.267 0 0 1-.9-2.156l5.684-5.788a1.268 1.268 0 0 1 1.809 1.776L44.52 46.53a1.266 1.266 0 0 1-.9.379" transform="translate(33.035 30.1)" style="fill:#0058ff"/>
        <path data-name="Path 25589" d="M4.672 42.185A1.265 1.265 0 0 1 3.629 40.2l6.754-9.853a1.267 1.267 0 1 1 2.09 1.433l-6.755 9.855a1.267 1.267 0 0 1-1.047.55" transform="translate(2.657 23.245)" style="opacity:.5;fill:#0058ff"/>
        <path data-name="Path 25590" d="M53.2 43.133a1.267 1.267 0 0 1-1.075-.6L45.735 32.3a1.267 1.267 0 0 1 2.15-1.34l6.389 10.24a1.267 1.267 0 0 1-1.074 1.933" transform="translate(35.526 23.689)" style="opacity:.5;fill:#0058ff"/>
        <path data-name="Path 25591" d="M37.134 43.391A21.7 21.7 0 1 1 52.475 6.355a1.266 1.266 0 1 1-1.791 1.791A19.164 19.164 0 1 0 56.295 21.7a19.381 19.381 0 0 0-.276-3.265 1.267 1.267 0 1 1 2.5-.427 21.712 21.712 0 0 1-21.385 25.383" transform="translate(12.043)" style="fill:#0058ff"/>
        <path data-name="Path 25592" d="M19.985 16.94a1.312 1.312 0 0 1-.308-.037 1.267 1.267 0 0 1-.922-1.536A16.314 16.314 0 0 1 46.112 7.8a1.267 1.267 0 1 1-1.792 1.793 13.779 13.779 0 0 0-23.107 6.387 1.266 1.266 0 0 1-1.228.959" transform="translate(14.6 2.36)" style="opacity:.5;fill:#0058ff"/>
        <path data-name="Path 25593" d="M34.114 32.655a1.268 1.268 0 0 1-.835-.315L19.76 20.47a1.266 1.266 0 1 1 1.671-1.9l12.516 10.986L53.534 4.751a1.267 1.267 0 0 1 1.988 1.572L35.107 32.174a1.273 1.273 0 0 1-.878.475c-.039 0-.078.005-.116.005" transform="translate(15.078 3.331)" style="fill:#0058ff"/>
    </g>
</svg>
